<?xml version="1.0" standalone="no"?>
<!DOCTYPE svg PUBLIC "-//W3C//DTD SVG 20010904//EN"
 "http://www.w3.org/TR/2001/REC-SVG-20010904/DTD/svg10.dtd">
<svg version="1.0" xmlns="http://www.w3.org/2000/svg"
 width="2500.000000pt" height="1667.000000pt" viewBox="0 0 2500.000000 1667.000000"
 preserveAspectRatio="xMidYMid meet">

<g transform="translate(0.000000,1667.000000) scale(0.100000,-0.100000)"
fill="#000000" stroke="none">
<path d="M0 8345 l0 -8325 12500 0 12500 0 0 8325 0 8325 -12500 0 -12500 0 0
-8325z m10475 7440 c0 -17 -8 -20 -48 -23 -52 -3 -79 10 -70 34 4 11 19 14 62
12 48 -3 56 -6 56 -23z m-225 -4 c0 -21 -17 -29 -65 -31 -49 -3 -55 -1 -55 19
0 22 16 28 78 30 35 1 42 -2 42 -18z m433 -7 c20 -6 23 -40 5 -46 -15 -5 -89
11 -102 23 -5 4 -6 15 -2 24 6 17 39 16 99 -1z m-658 -38 c0 -14 -12 -23 -43
-34 -76 -25 -105 15 -29 41 52 19 72 17 72 -7z m849 -26 c49 -20 55 -30 32
-50 -12 -9 -24 -7 -60 9 -42 18 -56 38 -39 54 10 10 17 9 67 -13z m-1059 -56
c0 -27 -80 -70 -100 -54 -21 17 -8 36 38 59 48 24 62 23 62 -5z m1256 -46 c44
-24 54 -42 34 -58 -11 -9 -23 -6 -54 12 -41 23 -56 42 -45 59 8 14 23 11 65
-13z m-1448 -61 c6 -17 1 -25 -41 -59 -34 -28 -62 -28 -62 1 1 17 65 71 86 71
6 0 14 -6 17 -13z m1881 -252 c47 -121 83 -221 82 -222 -3 -3 -448 206 -456
213 -3 3 24 31 59 63 l64 57 -32 27 c-32 26 -38 56 -14 64 6 2 26 -9 45 -26
l34 -29 59 53 c50 45 61 51 67 37 5 -9 46 -116 92 -237z m2613 203 c28 -26 31
-86 6 -117 -10 -12 -35 -24 -55 -28 -32 -5 -41 -1 -68 25 -16 17 -30 40 -30
52 0 26 25 77 42 83 32 13 83 6 105 -15z m358 -3 c35 -34 33 -78 -5 -117 -27
-26 -36 -30 -68 -25 -104 17 -95 167 10 167 28 0 46 -7 63 -25z m354 -1 c21
-26 27 -67 15 -99 -8 -19 -55 -45 -84 -45 -33 0 -80 53 -80 90 0 73 104 111
149 54z m341 16 c26 -14 43 -71 31 -103 -40 -106 -196 -49 -161 59 7 19 19 38
28 44 22 12 78 13 102 0z m-5716 -115 c7 -20 -50 -85 -75 -85 -29 0 -23 30 13
67 35 36 53 41 62 18z m6847 -140 l22 -75 48 6 c41 5 50 4 55 -11 8 -19 -10
-35 -41 -35 -45 -1 -48 -12 -26 -92 12 -41 21 -76 21 -79 0 -5 -482 46 -499
53 -8 3 377 306 391 307 4 1 17 -33 29 -74z m-6988 -37 c5 -13 -29 -78 -47
-90 -39 -28 -48 14 -13 67 22 35 51 46 60 23z m7340 -20 c9 -28 -6 -38 -58
-38 -39 0 -54 4 -59 16 -3 9 -4 20 0 25 8 14 112 11 117 -3z m210 -14 c10 -3
17 -13 15 -22 -3 -13 -14 -17 -52 -15 -54 2 -72 13 -62 38 6 17 39 16 99 -1z
m201 -53 c31 -13 41 -28 26 -46 -10 -12 -18 -12 -53 2 -53 20 -61 28 -53 48 6
18 25 16 80 -4z m196 -91 c44 -22 56 -60 21 -60 -32 0 -91 40 -91 61 0 24 21
24 70 -1z m-5300 -5 c48 -25 56 -91 17 -132 -41 -45 -118 -23 -140 39 -10 27
13 77 42 93 34 18 46 18 81 0z m379 -22 c46 -52 7 -133 -66 -133 -67 0 -105
74 -67 128 34 48 92 50 133 5z m324 25 c50 -26 62 -86 26 -132 -40 -51 -128
-28 -145 38 -8 32 14 77 46 93 31 16 46 16 73 1z m378 -14 c35 -32 31 -100 -9
-130 -27 -21 -83 -17 -109 8 -26 24 -32 83 -10 110 31 40 91 46 128 12z
m-3836 -3 c6 -11 -24 -93 -38 -103 -13 -8 -37 1 -37 15 0 6 7 31 16 54 16 41
44 57 59 34z m9439 -87 c3 -9 6 -28 6 -43 0 -43 51 -106 102 -124 24 -9 52
-17 63 -19 11 -2 21 -12 23 -24 3 -18 -4 -22 -40 -28 -81 -13 -148 -80 -148
-148 -1 -65 -52 -65 -61 0 -9 72 -74 136 -151 148 -21 4 -41 10 -43 14 -11 17
8 40 33 40 14 0 45 9 69 21 49 24 93 88 93 136 0 16 3 33 7 36 12 13 41 7 47
-9z m-1190 -30 c35 -32 37 -37 23 -51 -14 -14 -18 -14 -45 5 -41 30 -55 49
-48 67 9 24 28 18 70 -21z m-9584 -24 c93 -15 200 -69 264 -133 53 -52 54 -53
87 -41 59 21 157 17 214 -10 98 -45 171 -164 163 -263 l-3 -38 78 -37 c90 -43
186 -132 229 -214 79 -148 78 -331 -4 -486 -37 -70 -135 -166 -206 -202 -110
-56 -115 -56 -769 -56 -400 0 -620 4 -655 11 -195 41 -354 209 -389 412 -44
257 129 514 384 572 l52 11 8 65 c23 194 197 377 387 408 77 12 87 12 160 1z
m1262 -72 c3 -7 0 -34 -5 -61 -8 -41 -13 -48 -31 -45 -18 3 -21 9 -18 42 2 22
8 48 13 58 11 20 35 24 41 6z m8477 -55 c18 -21 30 -45 29 -53 -6 -29 -34 -20
-67 20 -26 33 -30 44 -21 55 18 22 25 19 59 -22z m-1871 -445 c-66 -167 -127
-323 -137 -348 -16 -44 -18 -45 -65 -48 -43 -3 -48 -1 -42 15 4 10 66 168 138
351 l131 332 47 0 48 0 -120 -302z m2012 247 c18 -34 22 -47 13 -56 -18 -18
-37 -5 -64 45 -20 39 -22 48 -10 55 22 14 35 4 61 -44z m-8652 -22 c-3 -50 -6
-58 -23 -58 -16 0 -21 8 -23 44 -4 55 2 71 28 71 19 0 21 -5 18 -57z m4447 -8
c81 -22 150 -61 215 -123 53 -51 55 -52 90 -40 49 17 158 14 201 -4 53 -23
117 -85 145 -140 18 -35 24 -63 24 -111 l0 -64 38 -11 c143 -43 287 -209 321
-370 58 -277 -134 -559 -409 -602 -36 -5 -205 -10 -377 -10 l-312 0 -5 -32
c-3 -18 -11 -71 -17 -117 -11 -88 -32 -136 -56 -127 -8 4 -23 6 -33 6 -12 0
-20 10 -24 30 -5 28 5 138 20 213 l6 27 -194 0 c-235 0 -301 10 -398 57 -212
103 -324 349 -265 578 46 176 206 329 381 365 l51 11 6 64 c10 134 116 290
243 357 105 56 235 72 349 43z m1783 -136 c-7 -5 -75 -30 -150 -56 -76 -26
-138 -51 -138 -54 0 -3 68 -29 150 -58 l150 -54 0 -54 c0 -40 -3 -54 -12 -50
-7 2 -109 40 -225 83 l-213 78 0 55 0 56 223 81 222 82 3 -51 c2 -33 -1 -53
-10 -58z m934 0 l148 -54 0 -56 0 -55 -212 -78 c-117 -43 -219 -81 -225 -83
-10 -4 -13 10 -13 50 l0 54 150 54 c83 29 150 55 150 58 0 3 -44 21 -98 40
-53 18 -121 42 -149 53 l-53 19 0 54 0 54 78 -28 c42 -16 143 -53 224 -82z
m1582 -36 c20 -59 20 -63 -4 -63 -15 0 -26 13 -40 46 -22 49 -19 64 10 64 13
0 23 -14 34 -47z m-6279 12 c93 -17 206 -70 266 -124 l44 -39 -54 -56 -55 -56
-30 26 c-54 44 -167 93 -238 103 -140 20 -283 -21 -391 -112 l-49 -40 -55 55
-55 55 44 36 c168 138 369 191 573 152z m6336 -205 c4 -14 7 -40 8 -58 1 -29
-2 -33 -21 -30 -18 2 -24 12 -30 48 -5 25 -6 51 -3 58 8 21 38 9 46 -18z
m-6307 -69 c34 -17 71 -40 81 -51 19 -21 18 -21 -38 -77 -52 -53 -57 -56 -74
-41 -80 70 -207 70 -301 0 l-34 -24 -49 48 c-27 26 -49 53 -48 59 1 25 122 96
195 115 22 5 76 8 122 6 68 -3 95 -9 146 -35z m5698 -91 c13 -76 60 -122 143
-143 39 -9 50 -16 50 -32 0 -15 -9 -21 -43 -27 -85 -14 -141 -70 -152 -153 -4
-32 -9 -40 -25 -40 -15 0 -23 10 -31 46 -7 25 -17 56 -23 67 -19 35 -76 72
-122 80 -35 6 -45 12 -47 29 -3 18 3 23 35 28 89 14 145 68 158 153 6 37 10
43 28 40 17 -2 23 -13 29 -48z m633 -100 c0 -48 -2 -55 -20 -55 -17 0 -20 8
-23 58 -3 56 -2 58 20 55 21 -3 23 -8 23 -58z m2239 -23 c13 -83 56 -129 143
-151 31 -8 49 -18 51 -29 4 -19 -3 -22 -63 -32 -28 -5 -52 -19 -81 -49 -30
-29 -44 -53 -49 -81 -10 -60 -13 -67 -32 -63 -11 2 -20 17 -25 41 -18 85 -72
142 -149 155 -30 5 -45 13 -47 25 -4 18 -1 20 67 37 64 17 106 62 121 133 11
48 17 57 35 57 19 0 24 -7 29 -43z m-8675 -24 l24 -15 -57 -56 -56 -57 -52 52
c-58 58 -57 65 8 89 44 15 97 10 133 -13z m-1239 -141 c35 -36 44 -97 38 -257
-3 -83 -9 -119 -21 -138 -39 -60 -157 -53 -186 10 -7 14 -11 89 -11 189 l0
166 29 29 c24 24 38 29 76 29 38 0 52 -5 75 -28z m250 -202 l0 -230 -35 0 -35
0 0 175 0 175 -25 0 c-36 0 -36 45 0 54 14 4 32 17 41 31 9 14 25 25 35 25 18
0 19 -11 19 -230z m260 0 l0 -230 -35 0 -35 0 0 175 0 175 -30 0 c-25 0 -30 4
-30 25 0 19 5 25 21 25 11 0 33 14 47 30 15 17 34 30 44 30 17 0 18 -16 18
-230z m7147 219 c12 -12 -1 -97 -17 -113 -19 -19 -39 13 -33 52 10 63 27 84
50 61z m-11543 -74 c61 -26 132 -99 156 -161 11 -30 20 -68 20 -84 0 -24 4
-30 23 -30 36 0 119 -45 161 -86 122 -122 120 -311 -3 -435 -91 -91 -88 -90
-562 -87 l-404 3 -50 27 c-60 32 -105 77 -137 138 -31 60 -37 169 -13 239 22
66 100 153 160 178 40 16 45 21 45 51 0 110 120 198 221 163 27 -9 34 -8 45 7
19 28 88 72 136 88 52 17 147 12 202 -11z m11494 -162 c5 -35 -24 -93 -47 -93
-24 0 -26 13 -10 61 21 61 50 77 57 32z m-90 -209 c4 -25 -39 -89 -58 -89 -25
0 -22 31 5 75 27 43 48 48 53 14z m-7550 -111 c36 -22 42 -54 42 -216 0 -133
-3 -156 -20 -184 -22 -37 -71 -51 -129 -37 -59 15 -71 51 -71 224 0 118 3 152
18 180 27 56 100 71 160 33z m515 5 c36 -18 47 -70 47 -210 0 -159 -10 -202
-50 -223 -45 -23 -104 -19 -137 9 l-28 24 0 180 c0 163 2 182 19 201 34 37 98
45 149 19z m279 -18 c9 -11 20 -41 23 -65 11 -68 1 -286 -14 -316 -26 -54
-119 -67 -168 -25 l-28 24 -3 175 -3 174 26 31 c38 46 130 47 167 2z m-1052
-200 l0 -230 -35 0 -35 0 0 175 0 175 -30 0 c-25 0 -30 4 -30 24 0 17 7 26 25
30 13 3 32 17 42 31 10 13 28 25 41 25 l22 0 0 -230z m520 0 l0 -230 -35 0
-35 0 0 175 0 175 -30 0 c-25 0 -30 4 -30 24 0 17 7 26 25 30 14 4 32 17 41
31 10 15 26 25 40 25 l24 0 0 -230z m-1356 158 c14 -84 70 -140 154 -154 36
-6 43 -10 40 -27 -2 -14 -16 -23 -50 -32 -85 -21 -120 -57 -142 -142 -8 -31
-18 -49 -29 -51 -19 -4 -22 3 -32 63 -9 54 -76 121 -130 130 -58 10 -65 13
-65 30 0 9 6 17 13 19 6 2 32 9 57 16 60 16 116 73 125 125 10 60 13 65 33 65
15 0 21 -10 26 -42z m9843 -473 c75 -22 136 -74 172 -146 17 -34 31 -74 31
-88 0 -36 10 -48 45 -57 82 -19 172 -94 208 -172 33 -72 31 -190 -6 -259 -36
-69 -88 -120 -156 -152 l-56 -26 -390 0 c-350 0 -395 2 -442 18 -66 23 -131
80 -168 148 -27 49 -30 63 -30 144 0 74 4 97 23 132 34 65 76 108 137 139 48
25 55 33 55 59 1 39 31 104 61 132 36 33 109 49 155 35 36 -11 38 -10 87 33
77 70 171 90 274 60z m-14142 -70 c82 -21 193 -77 244 -122 l42 -38 -54 -53
-54 -54 -44 34 c-24 18 -73 46 -109 63 -60 28 -73 30 -180 30 -153 0 -205 -19
-355 -130 -20 -14 -24 -12 -73 38 l-52 52 53 43 c64 53 192 116 272 136 80 19
236 20 310 1z m-31 -255 c29 -12 73 -34 96 -51 l43 -31 -54 -54 -54 -54 -59
30 c-45 23 -72 30 -115 30 -57 0 -128 -25 -164 -57 -17 -16 -21 -14 -69 34
-58 58 -57 64 16 111 102 64 253 81 360 42z m12761 -8 c60 -28 107 -71 143
-132 l27 -45 3 -3097 c2 -2935 3 -3097 20 -3102 9 -3 60 -15 112 -27 257 -59
563 -193 728 -319 50 -38 94 -70 97 -70 3 0 5 15 5 34 0 62 30 206 66 319 69
214 202 472 339 660 l57 78 34 -45 c224 -293 390 -679 429 -993 4 -29 9 -53
11 -53 2 0 32 23 66 51 137 110 354 219 589 294 109 34 380 95 427 95 29 0 28
-11 -3 -169 -73 -362 -202 -664 -375 -882 -59 -74 -168 -180 -275 -266 l-40
-32 58 -1 57 0 0 -867 c-1 -687 -3 -873 -14 -891 -24 -43 -65 -62 -138 -62
l-68 0 0 -100 0 -100 -188 0 c-104 0 -446 -3 -760 -7 l-572 -6 0 106 0 107
-62 0 c-74 0 -104 13 -135 59 l-23 34 0 863 0 864 58 0 57 1 -55 47 c-229 195
-355 357 -460 589 l-37 83 -21 -53 c-32 -75 -74 -121 -144 -156 l-61 -31
-1989 0 -1988 0 0 -45 c0 -24 5 -88 11 -142 6 -54 23 -255 37 -448 l27 -350
230 -5 c217 -5 232 -6 266 -28 37 -23 69 -74 69 -110 0 -16 12 -24 53 -36 53
-15 125 -60 160 -100 10 -12 30 -46 45 -76 l27 -55 5 -995 5 -995 23 -42 c74
-140 217 -202 364 -159 73 21 156 95 189 168 l24 53 5 1140 5 1140 23 43 c36
67 98 129 161 159 49 24 68 28 146 28 80 0 97 -3 148 -29 68 -35 130 -98 160
-164 22 -46 22 -59 27 -627 5 -579 5 -580 28 -630 47 -102 136 -159 247 -158
72 1 121 21 177 71 61 55 80 106 88 242 5 88 12 126 30 162 66 140 230 216
375 173 102 -29 170 -89 214 -185 19 -42 21 -65 21 -392 l0 -346 153 -4 c139
-3 157 -5 207 -29 94 -44 173 -136 199 -234 6 -23 14 -266 20 -580 9 -455 9
-550 -3 -606 -44 -207 -215 -368 -426 -400 -114 -17 -349 -7 -431 20 -129 41
-246 147 -304 274 -47 102 -48 132 -38 722 10 531 11 552 32 607 31 79 97 150
179 190 65 32 71 33 215 36 l148 4 -3 346 c-3 334 -4 349 -25 387 -105 195
-382 195 -480 1 -21 -42 -27 -70 -32 -166 -6 -99 -11 -125 -35 -173 -30 -63
-84 -114 -155 -148 -70 -34 -187 -33 -262 2 -68 32 -120 82 -157 152 l-27 52
-5 585 c-5 567 -6 586 -26 630 -24 52 -96 122 -151 146 -51 22 -165 22 -216 0
-55 -24 -127 -94 -151 -146 -21 -45 -21 -54 -26 -1180 l-5 -1135 -33 -67 c-36
-74 -96 -133 -170 -170 -40 -20 -63 -23 -152 -23 -94 0 -110 3 -155 27 -65 34
-129 98 -163 163 l-27 50 -5 995 c-5 983 -5 996 -26 1040 -30 65 -68 105 -126
134 -83 42 -88 39 -88 -49 l0 -75 -1681 0 -1681 0 4 134 c3 146 9 164 72 210
26 20 43 21 262 24 172 2 234 6 234 15 0 34 60 775 64 792 3 11 7 55 10 97 l6
78 -1988 2 -1987 3 -53 24 c-32 14 -71 44 -101 77 -90 98 -81 -279 -80 3533 0
2565 3 3394 12 3418 32 87 117 165 205 189 38 10 1032 12 5042 11 l4995 -2 50
-23z m-12845 -237 c17 -9 30 -19 30 -23 0 -4 -23 -30 -50 -57 l-50 -50 -52 52
-51 51 34 21 c40 25 98 27 139 6z m600 -361 c11 -81 86 -154 159 -154 35 0 50
-22 31 -45 -7 -8 -26 -15 -42 -15 -66 0 -133 -64 -146 -141 -6 -34 -12 -45
-28 -47 -18 -3 -22 4 -28 40 -13 79 -80 148 -144 148 -34 0 -52 11 -52 31 0
21 5 24 65 34 52 9 109 65 125 125 7 25 14 51 16 58 2 8 12 12 21 10 13 -2 20
-16 23 -44z m13378 -249 c358 -85 533 -491 349 -814 -67 -119 -209 -223 -348
-256 -286 -67 -567 99 -657 389 -22 73 -21 226 2 296 35 104 77 173 145 240
135 133 327 188 509 145z m1537 -136 c83 -15 185 -70 248 -132 51 -51 54 -53
82 -41 17 7 62 13 100 13 158 1 274 -111 275 -264 l0 -60 77 -35 c199 -89 318
-307 286 -525 -30 -210 -197 -386 -402 -425 -75 -14 -1199 -13 -1277 1 -93 17
-180 65 -254 139 -104 104 -150 213 -150 355 0 142 46 251 150 355 72 72 153
118 240 135 l55 12 7 67 c19 188 177 361 368 402 71 16 122 17 195 3z m-16636
-1284 c32 -16 41 -33 41 -78 0 -71 -93 -105 -145 -52 -35 34 -33 78 4 116 33
32 58 36 100 14z m364 -5 c33 -26 43 -70 23 -108 -17 -34 -34 -42 -82 -42 -45
0 -74 29 -74 76 0 44 15 72 43 84 36 14 63 11 90 -10z m356 -6 c38 -31 41 -78
10 -118 -16 -21 -29 -26 -64 -26 -35 0 -48 5 -64 26 -36 45 -25 104 24 132 32
18 61 14 94 -14z m364 -5 c24 -30 22 -94 -3 -119 -20 -20 -71 -27 -105 -14
-19 8 -45 55 -45 84 0 12 14 35 30 52 27 26 36 30 68 25 20 -4 45 -16 55 -28z
m1618 -130 c12 -79 62 -132 145 -153 31 -8 50 -18 52 -29 4 -19 -3 -22 -63
-32 -28 -5 -52 -19 -81 -49 -30 -29 -44 -53 -49 -81 -10 -60 -13 -67 -31 -63
-11 2 -21 21 -29 51 -21 83 -70 132 -145 145 -35 6 -46 12 -48 28 -3 18 4 22
40 28 86 14 157 90 158 169 0 24 4 28 22 25 17 -2 24 -12 29 -39z m13698 -469
c121 -159 146 -196 133 -202 -10 -4 -43 -15 -75 -24 l-58 -16 3 -51 c3 -46 1
-52 -17 -52 -15 0 -22 10 -29 43 -5 23 -13 42 -19 42 -5 0 -41 -9 -79 -21 -39
-11 -72 -18 -74 -16 -8 7 50 497 58 495 4 -2 75 -91 157 -198z m-15046 175
c89 -19 159 -57 231 -127 l58 -56 34 14 c18 8 62 14 98 14 155 0 276 -123 276
-283 0 -36 4 -49 18 -53 124 -41 234 -139 295 -262 41 -83 42 -89 45 -196 3
-93 0 -122 -18 -176 -56 -172 -208 -307 -380 -340 -71 -14 -1209 -13 -1281 0
-30 6 -81 23 -114 39 -181 85 -286 250 -287 451 -1 149 51 271 159 376 55 52
170 111 235 120 l44 6 11 75 c28 194 178 357 366 398 81 18 128 18 210 0z
m13203 -389 c57 -48 22 -146 -52 -146 -46 0 -63 9 -79 41 -21 40 -19 63 11 98
33 39 80 42 120 7z m358 -7 c30 -35 32 -58 11 -98 -16 -32 -33 -41 -79 -41
-74 0 -109 98 -52 146 40 35 87 32 120 -7z m351 6 c54 -53 16 -145 -60 -145
-49 0 -85 36 -85 85 0 49 36 85 85 85 25 0 44 -8 60 -25z m349 3 c40 -35 43
-78 11 -116 -38 -45 -92 -45 -129 -1 -34 40 -33 74 3 110 36 36 79 38 115 7z
m810 -281 c6 -25 6 -45 -2 -62 -17 -36 -39 -22 -44 28 -9 77 28 104 46 34z
m-1567 -199 c32 -30 32 -90 -2 -123 -34 -35 -78 -33 -117 5 -26 27 -30 36 -25
68 4 20 16 45 28 55 30 24 87 22 116 -5z m338 16 c19 -8 45 -55 45 -84 0 -33
-53 -80 -90 -80 -70 0 -107 95 -58 147 21 23 67 30 103 17z m370 -19 c26 -25
33 -72 15 -104 -13 -25 -64 -45 -95 -37 -96 24 -80 166 20 166 25 0 44 -8 60
-25z m347 11 c42 -32 43 -103 0 -136 -72 -57 -171 26 -128 108 9 17 21 32 28
35 25 10 83 6 100 -7z m498 -30 c0 -51 -17 -88 -38 -84 -13 3 -16 12 -15 38 5
62 12 80 33 80 16 0 20 -7 20 -34z m-53 -218 c-8 -52 -25 -88 -41 -88 -25 0
-28 19 -11 70 13 38 21 50 37 50 18 0 20 -5 15 -32z m-82 -188 c8 -13 -32 -90
-51 -97 -32 -12 -38 15 -13 62 23 43 50 58 64 35z m538 -190 c75 -23 174 -86
216 -137 l29 -35 46 16 c126 43 262 -11 333 -131 20 -34 27 -63 31 -118 l4
-73 38 -11 c55 -16 150 -81 198 -136 23 -27 59 -82 80 -124 l37 -75 0 -135 c0
-136 0 -136 -36 -211 -64 -133 -173 -229 -307 -270 -61 -19 -94 -20 -692 -20
-598 0 -631 1 -692 20 -133 41 -239 134 -305 267 -32 66 -37 83 -41 174 -6
120 8 190 51 273 66 124 184 218 317 252 l67 18 11 73 c45 289 335 469 615
383z m-663 -10 c0 -27 -57 -90 -76 -83 -21 8 -17 30 14 69 30 38 62 45 62 14z
m-16077 -326 c15 -136 26 -249 23 -251 -2 -3 -39 5 -81 17 -42 12 -78 20 -79
18 -1 -2 -7 -21 -12 -43 -7 -30 -14 -40 -29 -40 -18 0 -20 6 -17 51 l3 52 -71
19 c-39 10 -72 21 -73 24 -2 6 296 399 303 399 3 0 18 -111 33 -246z m15927
160 c0 -19 -61 -73 -82 -74 -30 0 -21 36 17 69 35 30 65 33 65 5z m-13116 -97
c18 -19 24 -38 29 -104 6 -81 26 -146 85 -274 46 -99 66 -213 59 -334 -7 -115
-22 -172 -82 -305 -50 -112 -65 -175 -65 -275 0 -103 15 -163 72 -293 105
-240 104 -426 -3 -669 -51 -116 -69 -184 -69 -261 0 -84 -74 -123 -120 -64
-20 24 -21 35 -16 99 9 99 28 165 80 280 56 125 70 196 64 321 -6 102 -16 139
-83 290 -47 106 -68 220 -62 333 7 108 28 189 78 297 54 116 69 179 69 284 0
114 -13 173 -65 288 -55 121 -72 179 -80 279 -7 76 -6 80 18 105 32 32 61 33
91 3z m12931 -42 c0 -22 -77 -71 -95 -60 -21 13 -9 41 28 62 43 26 67 25 67
-2z m-1335 -5 c44 -22 56 -60 21 -60 -32 0 -91 40 -91 61 0 24 21 24 70 -1z
m1140 -97 c0 -17 -86 -57 -106 -49 -28 11 -10 40 36 57 48 18 70 15 70 -8z
m-933 1 c29 -12 43 -23 43 -35 0 -22 -21 -24 -71 -8 -44 15 -53 24 -46 43 8
20 21 20 74 0z m226 -59 c28 -4 37 -11 37 -25 0 -25 -13 -27 -82 -15 -27 4
-38 11 -38 24 0 23 10 32 29 27 9 -2 33 -7 54 -11z m484 -1 c9 -23 -8 -34 -65
-41 -48 -5 -52 -4 -52 15 0 15 8 23 28 28 15 3 32 7 37 9 25 8 46 4 52 -11z
m-222 -24 c13 -20 -17 -40 -59 -40 -45 0 -68 14 -59 36 6 17 108 20 118 4z
m-15276 -258 c11 -21 3 -100 -11 -108 -5 -3 -16 0 -25 7 -11 10 -14 24 -9 57
9 65 25 81 45 44z m1247 -16 c83 -70 -24 -192 -110 -125 -43 34 -33 119 17
139 37 15 65 11 93 -14z m355 -5 c37 -38 39 -82 4 -116 -50 -50 -130 -23 -142
47 -5 32 -1 41 25 68 39 39 74 39 113 1z m362 -2 c27 -33 23 -93 -9 -118 -87
-68 -192 55 -109 126 23 20 36 24 64 19 20 -3 44 -15 54 -27z m348 2 c31 -31
36 -59 17 -94 -41 -79 -158 -52 -158 36 0 79 85 114 141 58z m-2296 -213 c3
-13 6 -39 8 -58 2 -29 -2 -36 -19 -38 -17 -2 -23 4 -28 29 -12 61 -8 89 14 89
12 0 22 -8 25 -22z m60 -248 c17 -52 14 -70 -11 -70 -17 0 -44 58 -44 95 0 18
5 25 19 25 14 0 24 -13 36 -50z m91 -201 c27 -43 26 -73 -3 -67 -21 4 -63 76
-56 95 9 24 32 13 59 -28z m2378 -72 c14 -10 22 -38 31 -104 9 -63 24 -116 50
-174 56 -126 74 -199 74 -314 1 -118 -14 -184 -70 -307 -75 -168 -75 -313 1
-478 54 -118 70 -187 70 -305 0 -88 -8 -142 -34 -222 l-7 -23 430 0 431 0 0
-1016 c0 -995 0 -1016 -20 -1044 -11 -15 -32 -33 -47 -39 -21 -8 -247 -11
-845 -9 l-818 3 -32 33 -33 32 -3 426 c-2 398 -4 425 -20 418 -89 -38 -130
-46 -233 -42 -98 3 -111 6 -181 41 -188 93 -299 297 -268 492 35 216 186 371
398 407 83 14 184 2 259 -32 l43 -19 0 174 0 175 393 2 392 3 22 45 c58 116
50 279 -21 444 -57 132 -66 174 -66 298 0 119 11 165 70 302 74 173 75 309 1
474 -51 111 -71 189 -71 271 0 46 5 70 17 83 19 21 62 24 87 5z m-2251 -111
c29 -37 34 -60 16 -72 -16 -10 -79 56 -79 83 0 34 30 29 63 -11z m156 -162
c33 -27 42 -64 15 -64 -24 0 -84 50 -84 71 0 27 33 24 69 -7z m176 -127 c25
-14 41 -31 43 -45 5 -30 -23 -29 -71 3 -35 24 -45 43 -30 58 9 10 14 9 58 -16z
m1340 -12 c0 -22 -77 -71 -95 -60 -21 13 -9 41 28 62 43 26 67 25 67 -2z
m-1112 -94 c27 -10 36 -34 17 -46 -13 -8 -87 15 -101 31 -27 33 16 41 84 15z
m912 -6 c0 -14 -13 -24 -45 -36 -50 -19 -70 -15 -70 11 0 12 14 23 43 33 53
19 72 17 72 -8z m-677 -58 c6 -5 12 -15 12 -22 0 -19 -20 -23 -65 -13 -47 11
-60 21 -52 42 5 13 15 15 49 10 24 -4 49 -11 56 -17z m462 -7 c0 -21 -18 -28
-80 -33 -26 -1 -35 2 -38 16 -4 21 28 35 81 36 30 1 37 -2 37 -19z m-233 -11
c23 -23 2 -39 -52 -39 -55 0 -71 10 -61 35 7 18 96 21 113 4z"/>
<path d="M18575 14766 l-41 -42 42 -41 43 -41 43 42 43 41 -44 42 c-25 24 -45
43 -45 42 -1 0 -19 -20 -41 -43z"/>
<path d="M17220 13870 l-45 -45 45 -41 45 -40 41 41 41 42 -41 44 -41 44 -45
-45z"/>
<path d="M20090 13740 l-45 -45 47 -43 47 -43 16 25 c9 14 29 33 43 43 l27 18
-45 45 -46 45 -44 -45z"/>
<path d="M10152 13668 c-14 -14 -17 -295 -3 -316 4 -8 19 -12 32 -10 24 3 24
3 27 157 3 152 -3 181 -32 181 -7 0 -17 -5 -24 -12z"/>
<path d="M10120 13111 c-5 -11 -10 -80 -10 -155 0 -109 3 -138 16 -150 8 -9
21 -16 28 -16 31 0 36 25 36 170 0 150 -5 170 -42 170 -9 0 -22 -9 -28 -19z"/>
<path d="M10642 13118 c-19 -19 -17 -302 3 -318 19 -16 52 -4 59 23 10 38 7
267 -4 288 -12 21 -40 25 -58 7z"/>
<path d="M10902 13118 c-8 -8 -12 -55 -12 -159 0 -157 6 -178 50 -164 20 6 20
12 18 168 -3 154 -4 162 -23 165 -11 1 -26 -3 -33 -10z"/>
<path d="M9090 13021 c0 -4 -18 -25 -39 -47 l-39 -39 43 -41 42 -40 44 40 44
41 -47 47 c-27 26 -48 44 -48 39z"/>
<path d="M7620 9245 l0 -2725 4840 0 4840 0 0 2725 0 2725 -4840 0 -4840 0 0
-2725z m3015 2221 c38 -16 65 -60 65 -107 0 -22 -10 -41 -34 -65 l-34 -34
-302 0 c-202 0 -308 4 -323 11 -61 31 -77 115 -33 166 l24 28 189 5 c371 11
412 11 448 -4z m3555 -1 c56 -29 76 -90 48 -150 -22 -50 -49 -55 -272 -55
l-204 0 -31 26 c-60 50 -48 149 22 179 48 21 397 21 437 0z m-4467 -23 c35
-36 43 -81 23 -120 -34 -66 18 -62 -834 -62 -670 0 -777 2 -802 15 -37 19 -50
43 -50 95 0 33 6 48 29 71 l29 29 789 0 789 0 27 -28z m3748 18 c24 -13 49
-61 49 -95 0 -38 -24 -79 -55 -93 -19 -9 -220 -12 -795 -12 -575 0 -776 3
-795 12 -60 27 -74 120 -26 169 l29 29 787 0 c520 0 793 -3 806 -10z m-4240
-408 c41 -45 41 -102 0 -143 l-29 -29 -542 0 -542 0 -29 29 c-22 23 -29 39
-29 69 0 46 36 98 73 105 12 3 257 4 545 3 l524 -1 29 -33z m633 24 c71 -30
89 -110 37 -168 -32 -36 -14 -34 -284 -30 l-159 2 -29 29 c-52 52 -34 137 35
167 44 19 354 19 400 0z m675 -1 c36 -18 63 -73 55 -113 -3 -17 -19 -43 -36
-59 l-29 -28 -205 0 -206 0 -29 33 c-43 47 -41 102 5 148 l34 34 191 0 c149 0
198 -3 220 -15z m1362 -23 c41 -45 41 -102 0 -143 l-29 -29 -384 -2 c-211 -2
-454 -3 -540 -3 l-157 0 -30 29 c-39 38 -47 75 -25 121 31 67 11 65 602 62
l534 -2 29 -33z m515 4 c46 -46 48 -101 5 -148 l-29 -33 -137 0 -137 0 -29 33
c-43 47 -41 102 5 148 l34 34 127 0 127 0 34 -34z m-3185 -385 c24 -24 29 -38
29 -76 0 -38 -5 -52 -29 -76 l-29 -29 -542 0 -542 0 -29 29 c-24 24 -29 38
-29 76 0 38 5 52 29 76 l29 29 542 0 542 0 29 -29z m670 0 c23 -24 29 -38 29
-73 0 -24 -7 -54 -16 -67 -30 -43 -71 -51 -249 -51 -178 0 -219 8 -249 51 -9
13 -16 43 -16 67 0 35 6 49 29 73 l29 29 207 0 207 0 29 -29z m652 8 c15 -11
32 -37 38 -58 14 -46 0 -83 -44 -115 -26 -19 -45 -21 -200 -24 -190 -4 -234 4
-266 45 -33 40 -29 107 8 144 l29 29 205 0 c191 0 206 -1 230 -21z m453 -13
c38 -38 44 -77 20 -125 -21 -39 -56 -51 -150 -51 -93 0 -123 14 -146 69 -15
38 1 92 37 121 21 17 41 20 115 20 89 0 90 0 124 -34z m446 5 c28 -25 33 -36
33 -76 0 -40 -5 -51 -33 -76 -31 -27 -37 -29 -122 -29 -85 0 -91 2 -122 29
-28 25 -33 36 -33 76 0 40 5 51 33 76 31 27 37 29 122 29 85 0 91 -2 122 -29z
m428 14 c37 -19 50 -43 50 -95 0 -33 -6 -48 -29 -71 -28 -28 -34 -29 -115 -29
-96 0 -131 12 -152 51 -24 48 -18 87 20 125 33 33 36 34 115 34 54 0 92 -5
111 -15z m1353 -5 c14 -11 31 -36 37 -55 10 -30 9 -41 -7 -73 -24 -49 -71 -72
-148 -72 -111 0 -177 61 -154 142 17 63 47 78 154 78 77 0 96 -3 118 -20z
m458 -11 c23 -24 29 -41 29 -74 0 -83 -61 -121 -179 -113 -74 6 -101 18 -125
59 -27 45 -21 86 18 125 34 34 34 34 131 34 96 0 97 0 126 -31z m-4956 -365
c33 -15 65 -64 65 -99 0 -29 -30 -74 -60 -90 -43 -22 -587 -22 -630 0 -37 19
-50 43 -50 94 0 45 36 97 73 104 12 2 145 5 295 6 231 1 279 -1 307 -15z m428
-10 c37 -26 54 -83 37 -124 -24 -57 -52 -70 -152 -70 -130 0 -168 25 -168 109
0 45 36 96 73 105 12 2 58 3 103 2 61 -2 87 -7 107 -22z m418 -12 c43 -47 41
-102 -5 -148 -34 -34 -34 -34 -131 -34 -97 0 -97 0 -131 34 -42 42 -47 97 -13
140 31 40 53 46 157 43 92 -2 94 -3 123 -35z m1104 22 c33 -15 65 -64 65 -99
0 -29 -30 -74 -60 -90 -33 -17 -87 -20 -124 -5 -30 11 -66 65 -66 98 0 84 101
136 185 96z m-1229 -408 c55 -55 43 -134 -26 -168 -31 -16 -68 -18 -305 -18
-148 0 -436 3 -640 7 l-370 6 -27 28 c-49 49 -29 143 36 169 11 5 308 9 660 9
l638 1 34 -34z m795 -4 c18 -21 29 -43 29 -63 0 -36 -24 -85 -48 -97 -9 -5
-125 -12 -257 -16 -260 -7 -270 -6 -309 47 -24 32 -25 86 -2 118 33 47 46 49
309 46 l249 -2 29 -33z m754 24 c41 -17 55 -42 55 -96 0 -33 -6 -48 -29 -71
l-29 -29 -250 0 -250 0 -30 25 c-57 48 -46 141 20 170 47 20 464 21 513 1z
m632 -6 c58 -35 64 -116 11 -167 l-29 -28 -164 0 -164 0 -29 28 c-54 52 -48
131 12 168 27 16 51 19 181 19 131 0 154 -3 182 -20z m491 4 c26 -18 52 -65
52 -94 0 -34 -28 -78 -60 -95 -33 -17 -173 -21 -213 -6 -61 24 -88 89 -61 147
25 52 55 63 164 64 71 0 101 -4 118 -16z m475 5 c64 -33 77 -116 28 -171 -29
-32 -32 -33 -124 -36 -108 -4 -147 9 -172 58 -25 49 -19 88 19 126 34 34 34
34 131 34 53 0 106 -5 118 -11z m-3009 -383 c45 -19 66 -52 66 -104 0 -36 -5
-49 -31 -73 l-31 -29 -740 0 -740 0 -29 29 c-39 39 -41 106 -5 148 l24 28 169
5 c92 3 419 7 726 8 458 2 564 0 591 -12z m3588 -24 c28 -27 33 -40 33 -78 0
-39 -5 -50 -33 -75 l-32 -29 -741 0 -741 0 -29 29 c-53 54 -35 146 35 177 25
11 159 13 753 11 l723 -2 32 -33z m687 4 c38 -37 48 -83 27 -124 -31 -60 -41
-62 -259 -62 l-199 0 -29 31 c-34 36 -40 99 -13 138 32 45 65 51 261 49 l182
-3 30 -29z m-3370 10 c31 -17 51 -54 51 -97 0 -22 -10 -41 -34 -65 l-34 -34
-286 0 -286 0 -30 28 c-22 19 -33 39 -37 69 -5 39 -2 46 30 78 l35 35 281 0
c225 0 288 -3 310 -14z m880 0 c58 -30 69 -119 22 -167 l-29 -29 -291 0 -291
0 -32 29 c-28 25 -33 36 -33 76 0 40 5 51 33 76 l32 29 281 0 c223 0 286 -3
308 -14z m-2513 -400 c28 -28 34 -42 34 -76 0 -34 -6 -48 -34 -76 l-34 -34
-348 0 c-326 0 -351 1 -380 19 -20 12 -37 34 -44 55 -16 49 2 101 44 127 29
18 54 19 380 19 l348 0 34 -34z m451 14 c42 -25 62 -85 43 -131 -23 -56 -60
-69 -188 -69 l-114 0 -34 34 c-42 42 -47 97 -13 140 31 39 51 45 169 45 87 1
110 -2 137 -19z m448 6 c35 -15 65 -59 65 -96 0 -34 -28 -78 -60 -95 -46 -24
-225 -21 -267 5 -69 41 -63 154 9 185 44 19 207 20 253 1z m-759 -410 c38 -38
44 -77 20 -124 -28 -55 -31 -55 -485 -56 l-420 -1 -30 29 c-38 37 -48 83 -27
124 33 64 18 62 484 62 l424 0 34 -34z m545 -4 c43 -48 37 -112 -15 -154 -18
-15 -44 -18 -174 -18 l-154 0 -29 29 c-47 48 -36 134 22 167 18 11 62 13 172
12 l149 -3 29 -33z m509 23 c66 -34 76 -121 19 -169 -30 -25 -34 -26 -181 -26
l-150 0 -29 29 c-23 23 -29 38 -29 71 0 92 31 109 208 110 100 0 140 -4 162
-15z m1116 -19 c39 -39 44 -77 18 -127 -27 -52 -60 -59 -291 -59 -114 0 -300
3 -413 7 l-205 6 -27 28 c-46 46 -34 134 23 165 19 10 114 13 443 14 l418 0
34 -34z m420 0 c55 -55 43 -134 -26 -168 -43 -22 -147 -24 -195 -4 -83 35 -91
149 -13 193 14 7 60 12 112 13 87 0 88 0 122 -34z m-2403 -745 c45 -17 67 -51
67 -101 0 -39 -5 -51 -31 -76 l-30 -29 -539 0 -539 0 -30 29 c-16 15 -32 39
-36 53 -9 39 13 92 49 114 29 18 56 19 548 19 298 0 527 -4 541 -9z m487 -9
c50 -25 70 -83 46 -134 -24 -49 -66 -68 -155 -68 -116 0 -171 36 -171 111 0
40 29 85 64 99 40 16 178 11 216 -8z m420 3 c32 -17 60 -61 60 -95 0 -34 -28
-78 -60 -95 -40 -21 -190 -21 -231 0 -72 38 -62 164 15 195 37 15 184 12 216
-5z m856 -4 c42 -26 60 -78 44 -127 -7 -21 -24 -43 -44 -55 -29 -18 -53 -19
-334 -19 -266 0 -307 2 -332 17 -67 39 -67 152 1 189 18 10 95 13 329 14 283
0 307 -1 336 -19z m-1753 -382 c38 -19 57 -51 57 -97 0 -35 -6 -49 -29 -73
l-29 -29 -540 0 -540 0 -31 29 c-24 23 -31 37 -31 68 1 46 19 81 51 99 32 18
1058 20 1092 3z m2690 -9 c14 -11 31 -36 37 -55 10 -30 9 -41 -7 -73 -36 -73
-25 -72 -593 -72 -568 0 -557 -1 -593 72 -16 32 -17 43 -7 73 6 19 23 44 37
55 25 19 39 20 563 20 524 0 538 -1 563 -20z m507 3 c49 -28 63 -88 36 -142
-22 -42 -55 -51 -181 -51 -126 0 -159 9 -181 51 -27 53 -13 113 34 142 39 24
252 24 292 0z"/>
<path d="M5245 11579 c-21 -22 -42 -39 -47 -39 -5 0 12 -21 38 -47 l48 -48 42
43 42 43 -43 43 -43 43 -37 -38z"/>
<path d="M18513 11381 c-39 -24 -86 -92 -73 -105 12 -12 147 -20 204 -12 26 4
46 13 46 20 0 19 -46 77 -77 98 -36 23 -60 23 -100 -1z"/>
<path d="M18341 11344 c-18 -13 -20 -18 -10 -25 21 -13 25 -11 37 16 13 29 6
32 -27 9z"/>
<path d="M18750 11352 c0 -4 6 -16 13 -26 11 -15 18 -16 32 -9 17 10 15 12
-13 27 -18 9 -32 13 -32 8z"/>
<path d="M18205 11229 c-46 -51 -93 -149 -101 -212 l-7 -47 92 0 91 0 0 33 c1
28 19 137 36 207 5 22 0 28 -31 43 -19 9 -37 17 -39 17 -2 0 -20 -19 -41 -41z"/>
<path d="M18834 11249 l-30 -19 17 -72 c10 -40 20 -99 24 -130 l6 -58 90 0
c103 0 103 -1 69 101 -23 66 -58 129 -98 172 -30 31 -36 32 -78 6z"/>
<path d="M18391 11178 c-10 -25 -31 -154 -31 -187 0 -21 5 -21 206 -21 l206 0
-6 43 c-14 95 -28 164 -35 176 -6 9 -18 10 -55 0 -48 -12 -225 -8 -258 6 -13
5 -20 1 -27 -17z"/>
<path d="M18103 10844 c5 -52 63 -173 107 -223 l29 -34 41 18 c37 17 41 22 36
44 -17 72 -35 180 -36 209 l0 32 -91 0 -92 0 6 -46z"/>
<path d="M18365 10825 c3 -36 12 -87 18 -113 11 -42 15 -47 37 -44 103 11 204
13 250 3 41 -9 55 -9 61 1 7 11 21 81 35 176 l6 42 -207 0 -207 0 7 -65z"/>
<path d="M18845 10833 c-4 -32 -14 -91 -24 -131 l-17 -72 35 -21 c43 -25 52
-21 104 47 40 52 73 129 83 194 l7 40 -91 0 -91 0 -6 -57z"/>
<path d="M18460 10591 c-28 -9 -28 -22 1 -62 26 -37 72 -69 99 -69 34 0 75 26
103 67 35 50 34 59 -4 67 -41 8 -167 6 -199 -3z"/>
<path d="M18331 10541 c-10 -7 -8 -12 10 -25 33 -23 40 -20 27 9 -12 27 -16
29 -37 16z"/>
<path d="M18761 10531 c-16 -29 -14 -32 14 -19 25 11 29 28 8 35 -7 3 -16 -5
-22 -16z"/>
<path d="M6220 9760 l-45 -45 47 -43 47 -43 16 25 c9 14 29 33 43 43 l27 18
-45 45 -46 45 -44 -45z"/>
<path d="M4905 4231 c-96 -25 -172 -87 -217 -179 -29 -58 -33 -76 -32 -143 0
-62 6 -87 28 -132 89 -183 306 -246 475 -138 l51 33 0 239 0 238 -33 25 c-18
14 -50 33 -71 41 -45 19 -157 28 -201 16z"/>
</g>
</svg>
